# xmcd CD database file
#
# Track frame offsets:
#	150
#	27675
#	52950
#	84675
#	96525
#	127800
#	151500
#	181500
#	201825
#	241950
#
# Disc length: 3467 seconds
#
# Revision: 0
# Processed by: cddbd v1.5PL3 Copyright (c) Steve Scherf et al.
# Submitted via: CDex 1.51
#
DISCID=770d890a
DTITLE=Russell Gunn - Young Gunn
DYEAR=1995
DGENRE=Jazz
TTITLE0=East St. Louis
TTITLE1=Fly Me To The Moon
TTITLE2=Wade In The Water
TTITLE3=D.J.
TTITLE4=You Don't Know What Love Is
TTITLE5=The Concept
TTITLE6=The Message
TTITLE7=There Is No Greater Love
TTITLE8=Blue Gene
TTITLE9=Pannonica
EXTD=YEAR: 1995
EXTT0=
EXTT1=
EXTT2=
EXTT3=
EXTT4=
EXTT5=
EXTT6=
EXTT7=
EXTT8=
EXTT9=
PLAYORDER=
